Coordinates
version=1
nRows=16
nColumns=42
inDegrees=yes

Units are S.I. units (second, meters, Newtons, ...)
If the header above contains a line with 'inDegrees', this indicates whether rotational values are in degrees (yes) or radians (no).

endheader
time	pelvis_tilt	pelvis_list	pelvis_rotation	pelvis_tx	pelvis_ty	pelvis_tz	hip_flexion_r	hip_adduction_r	hip_rotation_r	knee_angle_r	knee_adduction_r	knee_angle_r_beta	ankle_angle_r	subtalar_angle_r	mtp_angle_r	hip_flexion_l	hip_adduction_l	hip_rotation_l	knee_angle_l	knee_adduction_l	knee_angle_l_beta	ankle_angle_l	subtalar_angle_l	mtp_angle_l	lumbar_extension	lumbar_bending	lumbar_rotation	arm_flex_r	arm_add_r	arm_rot_r	elbow_flex_r	pro_sup_r	wrist_flex_r	wrist_dev_r	arm_flex_l	arm_add_l	arm_rot_l	elbow_flex_l	pro_sup_l	wrist_flex_l	wrist_dev_l
      0.99000000	      5.60855126	     -4.83206268	      5.27945995	     -1.08478280	      0.97904527	      0.21305586	     22.31588192	      2.82358048	     -6.42589127	     20.30521414	      7.60102488	      0.35439284	     -6.44538044	    -13.14245882	     -7.72884230	    -21.57632247	    -13.86985985	     -0.27763304	     28.10455481	     13.51356206	      0.49051702	      0.43655222	      1.18848327	     -7.72884230	    -17.11077451	      5.56375703	     -8.09619347	    -11.24532317	     -4.70387103	    -19.77247003	     10.70003379	     90.00000001	      0.00000000	      0.00000000	     10.44561206	    -22.61690029	     -9.63613023	     47.64126617	     90.00000001	      0.00000000	      0.00000000
      1.00000000	      5.89307813	     -5.27153306	      5.38883001	     -1.06780463	      0.98077796	      0.21368216	     21.85503670	      3.43287869	     -6.02669454	     21.69915656	      7.58644482	      0.37872173	     -6.76446968	    -13.87093432	     -7.72549811	    -20.77106172	    -14.78671115	     -0.54203094	     31.24004284	     13.47896344	      0.54524161	     -3.48473943	      0.64350399	     -7.72549811	    -17.24087155	      6.16928191	     -7.95431806	    -11.09241102	     -4.78253756	    -19.83991685	     10.72460173	     90.00000001	      0.00000000	      0.00000000	      9.72423910	    -22.25416801	     -9.63980611	     47.15571896	     90.00000001	      0.00000000	      0.00000000
      1.01000000	      6.13269942	     -5.65594905	      5.47908771	     -1.05111231	      0.98267658	      0.21431027	     21.29923614	      4.01115569	     -5.49347503	     22.82792326	      7.63186400	      0.39842242	     -6.90854620	    -14.70584949	     -7.72248626	    -19.61730464	    -15.65684025	     -0.83287284	     34.70818662	     13.31063038	      0.60577213	     -7.57864209	      0.10793582	     -7.72248626	    -17.35152300	      6.68556903	     -7.77826251	    -10.87777056	     -4.87203648	    -19.90457027	     10.75763488	     90.00000001	      0.00000000	      0.00000000	      9.03723624	    -21.81037047	     -9.67811895	     46.55317274	     90.00000001	      0.00000000	      0.00000000
      1.02000000	      6.31313838	     -6.02488102	      5.41824059	     -1.03476900	      0.98459502	      0.21503988	     20.70031220	      4.62369075	     -4.84076982	     23.76417596	      7.74307214	      0.41476311	     -7.02677293	    -15.55746107	     -7.71859344	    -18.18538417	    -16.45834534	     -1.39642292	     38.42784618	     12.91101385	      0.67069244	    -11.66364581	     -0.47374130	     -7.71859344	    -17.44886295	      7.13804237	     -7.44575306	    -10.55643587	     -4.99561955	    -19.99049927	     10.81670279	     90.00000001	      0.00000000	      0.00000000	      8.40222760	    -21.33869481	     -9.77109920	     45.77893415	     90.00000001	      0.00000000	      0.00000000
      1.03000000	      6.49987564	     -6.36497349	      5.44167790	     -1.01875108	      0.98663191	      0.21571614	     19.91797234	      5.20322096	     -4.45048395	     24.37376224	      7.81745226	      0.42540240	     -6.65936773	    -16.08672079	     -7.71527718	    -16.52643622	    -17.26107077	     -1.63476179	     42.22773661	     12.48474986	      0.73701304	    -15.49419133	     -0.88691775	     -7.71527718	    -17.58223751	      7.55741602	     -7.16642579	    -10.18611214	     -5.10337806	    -20.06458562	     10.94905043	     90.00000001	      0.00000000	      0.00000000	      7.76333141	    -20.84418972	     -9.79692589	     45.00475592	     90.00000001	      0.00000000	      0.00000000
      1.04000000	      6.64213358	     -6.64697985	      5.35108584	     -1.00301358	      0.98860537	      0.21641839	     19.11033328	      5.75243806	     -4.19611901	     24.88504023	      7.82984967	      0.43432589	     -6.21627364	    -16.31501101	     -7.71016627	    -14.68251193	    -17.92578843	     -2.16272458	     46.09103366	     11.71534084	      0.80444029	    -18.85526077	     -1.40301234	     -7.71016627	    -17.70546552	      7.87521457	     -6.73123559	     -9.78201145	     -5.21924043	    -20.17024675	     11.11979643	     90.00000001	      0.00000000	      0.00000000	      7.24294710	    -20.29646143	     -9.84776317	     44.04619182	     90.00000001	      0.00000000	      0.00000000
      1.05000000	      6.71939035	     -6.91352143	      5.27675071	     -0.98754761	      0.99052877	      0.21716454	     18.27512571	      6.30731492	     -4.22682422	     25.22393470	      7.69863691	      0.44024071	     -5.37257661	    -16.11028647	     -7.70379875	    -12.66003344	    -18.56251720	     -2.48234532	     49.82309484	     10.94128839	      0.86957705	    -21.51203492	     -1.89873761	     -7.70379875	    -17.77882699	      8.15515111	     -6.32920047	     -9.34829971	     -5.34913070	    -20.15992621	     11.45233035	     90.00000001	      0.00000000	      0.00000000	      6.65254238	    -19.77645332	     -9.81682613	     43.11678477	     90.00000001	      0.00000000	      0.00000000
      1.06000000	      6.94932313	     -7.02853395	      5.26554143	     -0.97234605	      0.99267500	      0.21789823	     17.14872281	      6.67080727	     -4.30840442	     25.37925602	      7.64966298	      0.44295158	     -4.43586861	    -15.78406621	     -7.70100613	    -10.82091057	    -19.00131930	     -2.05809013	     53.16261297	     10.60014621	      0.92786264	    -22.72360556	     -2.21300835	     -7.70100613	    -18.06614572	      8.25141202	     -5.97476791	     -8.87318975	     -5.39846787	    -20.09985314	     11.90442477	     90.00000001	      0.00000000	      0.00000000	      6.00564405	    -19.41214800	     -9.73062629	     42.57111369	     90.00000001	      0.00000000	      0.00000000
      1.07000000	      6.67877814	     -7.26390709	      5.00554149	     -0.95726445	      0.99429042	      0.21883930	     16.57443819	      7.25986118	     -4.49730396	     25.52572573	      7.27163224	      0.44550796	     -3.45695579	    -15.31268619	     -7.69542803	     -8.32628302	    -19.51093034	     -2.83695982	     56.57270380	      9.45880138	      0.98737995	    -24.21007200	     -3.42974465	     -7.69542803	    -17.75181911	      8.40875056	     -5.43324060	     -8.41358467	     -5.58084217	    -20.00684834	     12.21168164	     90.00000001	      0.00000000	      0.00000000	      5.36368281	    -18.81301758	     -9.60145676	     41.30644557	     90.00000001	      0.00000000	      0.00000000
      1.08000000	      6.58496474	     -7.26219511	      4.79701350	     -0.94236257	      0.99621794	      0.21963192	     15.70320917	      7.51962111	     -4.73843499	     25.55592055	      7.01790721	      0.44603496	     -2.31310867	    -14.49665613	     -7.68582950	     -6.11037677	    -19.67884364	     -3.00340739	     59.46469158	      8.71114875	      1.03785466	    -24.35058150	     -4.56067594	     -7.68582950	    -17.67358727	      8.31254964	     -4.93791981	     -7.89972829	     -5.72451569	    -19.88510932	     12.61153361	     90.00000001	      0.00000000	      0.00000000	      4.93028414	    -18.22747842	     -9.63317779	     39.82352324	     90.00000001	      0.00000000	      0.00000000
      1.09000000	      6.41044746	     -7.17504285	      4.50521991	     -0.92758004	      0.99817717	      0.22064158	     14.85472583	      7.72240036	     -4.87376786	     25.47780308	      6.71202661	      0.44467155	     -1.22754124	    -13.61067288	     -7.67778958	     -3.88031500	    -19.73099398	     -3.13599541	     61.97681611	      8.14391305	      1.08169950	    -23.67242714	     -5.70495264	     -7.67778958	    -17.51895215	      8.06264281	     -4.41562102	     -7.35374662	     -5.80563573	    -19.71750549	     13.04147080	     90.00000001	      0.00000000	      0.00000000	      4.31410874	    -17.79428190	     -9.62801150	     38.66754569	     90.00000001	      0.00000000	      0.00000000
      1.10000000	      6.31078771	     -7.01529473	      4.22587535	     -0.91281423	      1.00035097	      0.22155791	     13.79089720	      7.77805614	     -4.85239587	     25.16415746	      6.58546282	      0.43919740	     -0.38861913	    -13.03565679	     -7.67520883	     -1.79972008	    -19.65958310	     -3.18563160	     64.06609598	      7.71833441	      1.11816431	    -22.22162701	     -6.62276990	     -7.67520883	    -17.44331136	      7.73341017	     -3.91860228	     -6.78628927	     -5.89663999	    -19.61374408	     13.52328603	     90.00000001	      0.00000000	      0.00000000	      3.46384444	    -17.40566512	     -9.53477132	     38.01834769	     90.00000001	      0.00000000	      0.00000000
      1.11000000	      6.04299162	     -6.71458366	      3.72241648	     -0.89812850	      1.00245990	      0.22252451	     12.95273048	      7.66358753	     -4.92798457	     25.00462127	      6.34033250	      0.43641297	      0.94075772	    -11.35803254	     -7.66553830	      0.31152332	    -19.37892903	     -3.54035956	     65.73982860	      7.34244815	      1.14737646	    -20.78598122	     -8.13440164	     -7.66553830	    -17.16473150	      7.20759664	     -3.18758686	     -6.22806699	     -6.06947965	    -19.28675531	     13.86073257	     90.00000001	      0.00000000	      0.00000000	      3.16628218	    -16.81524384	     -9.63148236	     35.99532756	     90.00000001	      0.00000000	      0.00000000
      1.12000000	      5.92732640	     -6.40869585	      3.33588046	     -0.88348845	      1.00485094	      0.22343079	     11.78222227	      7.51149144	     -4.75102311	     24.46012076	      6.26340642	      0.42690964	      1.54156703	    -10.73011812	     -7.66329738	      2.23297222	    -19.09044372	     -3.77434099	     66.99185298	      7.07804417	      1.16922841	    -18.90317436	     -8.99081336	     -7.66329738	    -17.05417679	      6.68468139	     -2.65881787	     -5.59332544	     -6.20098871	    -19.18932831	     14.37713272	     90.00000001	      0.00000000	      0.00000000	      2.21276850	    -16.45205114	     -9.57673521	     35.37167649	     90.00000001	      0.00000000	      0.00000000
      1.13000000	      5.77662345	     -6.06557690	      2.70596093	     -0.86883519	      1.00725184	      0.22435786	     10.60318646	      7.25459768	     -4.18519453	     23.86733891	      6.39269384	      0.41656365	      2.64505791	     -9.55312034	     -7.65865158	      3.98152501	    -18.75630299	     -4.24782470	     67.78674406	      6.99470354	      1.18310187	    -16.86226078	    -10.06288964	     -7.65865158	    -16.89589255	      6.08749070	     -1.78438349	     -4.99331558	     -6.40028549	    -18.95113223	     14.71106589	     90.00000001	      0.00000000	      0.00000000	      1.66604933	    -15.95750984	     -9.55441974	     33.86693585	     90.00000001	      0.00000000	      0.00000000
      1.14000000	      5.72077045	     -5.73264579	      2.30037162	     -0.85429419	      1.00978015	      0.22506151	      9.27691422	      6.99430169	     -4.02283293	     23.10663472	      6.35046003	      0.40328685	      3.02936800	     -8.85707391	     -7.65659322	      5.68673304	    -18.38441816	     -4.55731947	     68.22204159	      6.86271764	      1.19069925	    -15.06022535	    -10.76801402	     -7.65659322	    -16.81313037	      5.54896324	     -1.28363015	     -4.28676715	     -6.62433388	    -18.85582838	     15.25449021	     90.00000001	      0.00000000	      0.00000000	      0.68783893	    -15.57682223	     -9.51200194	     33.05658189	     90.00000001	      0.00000000	      0.00000000
